<svg width="46" height="46" viewBox="0 0 46 46" fill="none" xmlns="http://www.w3.org/2000/svg">
<circle cx="23" cy="23" r="23" fill="#FFF3F2"/>
<path d="M19.5953 20.0667C19.7993 20.0667 19.9949 20.1439 20.1392 20.2815C20.2834 20.419 20.3645 20.6055 20.3645 20.8V29.6C20.3645 29.7945 20.2834 29.981 20.1392 30.1185C19.9949 30.2561 19.7993 30.3333 19.5953 30.3333C19.3912 30.3333 19.1956 30.2561 19.0513 30.1185C18.9071 29.981 18.826 29.7945 18.826 29.6V20.8C18.826 20.6055 18.9071 20.419 19.0513 20.2815C19.1956 20.1439 19.3912 20.0667 19.5953 20.0667ZM23.4414 20.0667C23.6454 20.0667 23.8411 20.1439 23.9853 20.2815C24.1296 20.419 24.2106 20.6055 24.2106 20.8V29.6C24.2106 29.7945 24.1296 29.981 23.9853 30.1185C23.8411 30.2561 23.6454 30.3333 23.4414 30.3333C23.2374 30.3333 23.0417 30.2561 22.8975 30.1185C22.7532 29.981 22.6722 29.7945 22.6722 29.6V20.8C22.6722 20.6055 22.7532 20.419 22.8975 20.2815C23.0417 20.1439 23.2374 20.0667 23.4414 20.0667ZM28.0568 20.8C28.0568 20.6055 27.9757 20.419 27.8315 20.2815C27.6872 20.1439 27.4916 20.0667 27.2876 20.0667C27.0835 20.0667 26.8879 20.1439 26.7436 20.2815C26.5994 20.419 26.5183 20.6055 26.5183 20.8V29.6C26.5183 29.7945 26.5994 29.981 26.7436 30.1185C26.8879 30.2561 27.0835 30.3333 27.2876 30.3333C27.4916 30.3333 27.6872 30.2561 27.8315 30.1185C27.9757 29.981 28.0568 29.7945 28.0568 29.6V20.8Z" fill="#D91A1A"/>
<path d="M33.4414 16.4C33.4414 16.789 33.2793 17.162 32.9908 17.4371C32.7023 17.7121 32.311 17.8667 31.9029 17.8667H31.1337V31.0667C31.1337 31.8446 30.8095 32.5907 30.2325 33.1408C29.6555 33.691 28.8728 34 28.0568 34H18.826C18.01 34 17.2273 33.691 16.6503 33.1408C16.0733 32.5907 15.7491 31.8446 15.7491 31.0667V17.8667H14.9799C14.5718 17.8667 14.1805 17.7121 13.892 17.4371C13.6035 17.162 13.4414 16.789 13.4414 16.4V14.9333C13.4414 14.5443 13.6035 14.1713 13.892 13.8962C14.1805 13.6212 14.5718 13.4667 14.9799 13.4667H20.3645C20.3645 13.0777 20.5266 12.7046 20.8151 12.4296C21.1036 12.1545 21.4949 12 21.9029 12H24.9799C25.3879 12 25.7792 12.1545 26.0677 12.4296C26.3562 12.7046 26.5183 13.0777 26.5183 13.4667H31.9029C32.311 13.4667 32.7023 13.6212 32.9908 13.8962C33.2793 14.1713 33.4414 14.5443 33.4414 14.9333V16.4ZM17.4691 17.8667L17.2876 17.9532V31.0667C17.2876 31.4557 17.4496 31.8287 17.7382 32.1038C18.0267 32.3788 18.418 32.5333 18.826 32.5333H28.0568C28.4648 32.5333 28.8561 32.3788 29.1446 32.1038C29.4332 31.8287 29.5953 31.4557 29.5953 31.0667V17.9532L29.4137 17.8667H17.4691ZM14.9799 16.4H31.9029V14.9333H14.9799V16.4Z" fill="#D91A1A"/>
</svg>
